<svg width="51" height="60" viewBox="0 0 51 60" fill="none" xmlns="http://www.w3.org/2000/svg">
<path d="M1.16994 27.9801C2.63995 25.9101 4.98994 23.5001 7.57995 21.3701C10.0399 19.4701 13.0899 17.8501 16.6399 16.5701C21.9299 14.7701 27.3599 14.3201 33.2499 15.2001C38.7399 15.8101 44.3499 18.7501 49.9199 23.9401L50.8199 23.0201L39.4999 11.4001C34.4599 6.08012 28.8199 2.62012 22.7399 1.13011C19.9499 0.380115 17.0699 0.000113398 14.1099 0.000113139C11.51 0.000112912 8.85995 0.290114 6.16995 0.870113C3.85995 1.37011 2.09995 2.08011 0.39995 2.76011L-5.10716e-05 2.92011L-5.34058e-05 29.6201L1.16994 27.9801Z" fill="#231F20"/>
<path d="M49.65 31.2601C48.18 33.3301 45.83 35.7401 43.24 37.8701C40.78 39.7701 37.73 41.3901 34.18 42.6701C28.89 44.4701 23.46 44.9201 17.57 44.0401C12.08 43.4301 6.47 40.4901 0.9 35.3001L0 36.2201L11.32 47.8401C16.36 53.1601 22 56.6201 28.08 58.1101C30.87 58.8601 33.75 59.2401 36.71 59.2401C39.31 59.2401 41.96 58.9501 44.65 58.3701C46.96 57.8701 48.72 57.1601 50.42 56.4801L50.82 56.3201V29.6201L49.65 31.2601Z" fill="#231F20"/>
</svg>
